<?xml version="1.0" encoding="UTF-8" standalone="no" ?>
<!DOCTYPE svg PUBLIC "-//W3C//DTD SVG 1.1//EN" "http://www.w3.org/Graphics/SVG/1.1/DTD/svg11.dtd">
<svg xmlns="http://www.w3.org/2000/svg" xmlns:xlink="http://www.w3.org/1999/xlink" version="1.1" width="708"
     height="708" viewBox="0 0 1080 1080" xml:space="preserve">
<g transform="matrix(1 0 0 1 351.152 245.5842)">
<g style="">
		<g transform="matrix(0.8438 0 0 0.5066 -163.6829 192.7438)">
<circle style="stroke: rgb(229,224,224); stroke-width: 1; stroke-dasharray: none; stroke-linecap: butt; stroke-dashoffset: 0; stroke-linejoin: miter; stroke-miterlimit: 4; fill: rgb(0,0,0); fill-rule: nonzero; opacity: 1;"
        vector-effect="non-scaling-stroke" cx="0" cy="0" r="75"/>
</g>
    <g transform="matrix(0.6294 0 0 0.3779 -155.1761 214.461)">
<circle style="stroke: rgb(229,224,224); stroke-width: 1; stroke-dasharray: none; stroke-linecap: butt; stroke-dashoffset: 0; stroke-linejoin: miter; stroke-miterlimit: 4; fill: rgb(0,0,0); fill-rule: nonzero; opacity: 1;"
        vector-effect="non-scaling-stroke" cx="0" cy="0" r="75"/>
</g>
    <g transform="matrix(0.1885 0 0 0.1869 -168.7432 192.5053)">
<circle style="stroke: rgb(229,224,224); stroke-width: 1; stroke-dasharray: none; stroke-linecap: butt; stroke-dashoffset: 0; stroke-linejoin: miter; stroke-miterlimit: 4; fill: rgb(255,255,255); fill-rule: nonzero; opacity: 1;"
        vector-effect="non-scaling-stroke" cx="0" cy="0" r="75"/>
</g>
    <g transform="matrix(0.1885 0 0 0.1869 -137.3737 191.6575)">
<circle style="stroke: rgb(229,224,224); stroke-width: 1; stroke-dasharray: none; stroke-linecap: butt; stroke-dashoffset: 0; stroke-linejoin: miter; stroke-miterlimit: 4; fill: rgb(255,255,255); fill-rule: nonzero; opacity: 1;"
        vector-effect="non-scaling-stroke" cx="0" cy="0" r="75"/>
</g>
    <g transform="matrix(0.1379 0.1379 -0.1379 0.1379 -168.6936 193.0202)">
<polygon
        style="stroke: none; stroke-width: 1; stroke-dasharray: none; stroke-linecap: butt; stroke-dashoffset: 0; stroke-linejoin: miter; stroke-miterlimit: 4; fill: rgb(154,14,21); fill-rule: nonzero; opacity: 1;"
        points="-75,-25 -25,-25 -25,-75 25,-75 25,-25 75,-25 75,25 25,25 25,75 -25,75 -25,25 -75,25 "/>
</g>
    <g transform="matrix(0.1379 0.1379 -0.1379 0.1379 -137.1993 193.5293)">
<polygon
        style="stroke: none; stroke-width: 1; stroke-dasharray: none; stroke-linecap: butt; stroke-dashoffset: 0; stroke-linejoin: miter; stroke-miterlimit: 4; fill: rgb(154,14,21); fill-rule: nonzero; opacity: 1;"
        points="-75,-25 -25,-25 -25,-75 25,-75 25,-25 75,-25 75,25 25,25 25,75 -25,75 -25,25 -75,25 "/>
</g>
    <g transform="matrix(0.2642 0.1525 -0.1525 0.2642 -151.9802 222.9432)">
<line style="stroke: rgb(173,0,0); stroke-width: 3; stroke-dasharray: none; stroke-linecap: butt; stroke-dashoffset: 0; stroke-linejoin: miter; stroke-miterlimit: 4; fill: rgb(196,3,3); fill-rule: nonzero; opacity: 1;"
      vector-effect="non-scaling-stroke" x1="-75" y1="0" x2="75" y2="0"/>
</g>
    <g transform="matrix(-0.2642 0.1525 -0.1525 -0.2642 -151.9697 222.6775)">
<line style="stroke: rgb(173,0,0); stroke-width: 3; stroke-dasharray: none; stroke-linecap: butt; stroke-dashoffset: 0; stroke-linejoin: miter; stroke-miterlimit: 4; fill: rgb(196,3,3); fill-rule: nonzero; opacity: 1;"
      vector-effect="non-scaling-stroke" x1="-75" y1="0" x2="75" y2="0"/>
</g>
    <g transform="matrix(0.2077 0.1198 0.1198 -0.2077 -229.1561 182.069)">
<line style="stroke: rgb(0,0,0); stroke-width: 3; stroke-dasharray: none; stroke-linecap: butt; stroke-dashoffset: 0; stroke-linejoin: miter; stroke-miterlimit: 4; fill: rgb(0,0,0); fill-rule: nonzero; opacity: 1;"
      vector-effect="non-scaling-stroke" x1="-75" y1="0" x2="75" y2="0"/>
</g>
    <g transform="matrix(0.1196 -0.1067 -0.0001 -0.0001 -253.2576 179.9951)">
<line style="stroke: rgb(0,0,0); stroke-width: 3; stroke-dasharray: none; stroke-linecap: butt; stroke-dashoffset: 0; stroke-linejoin: miter; stroke-miterlimit: 4; fill: rgb(0,0,0); fill-rule: nonzero; opacity: 1;"
      vector-effect="non-scaling-stroke" x1="-75" y1="0" x2="75" y2="0"/>
</g>
    <g transform="matrix(0.2077 0.1198 0.1198 -0.2077 -226.2518 196.5903)">
<line style="stroke: rgb(0,0,0); stroke-width: 3; stroke-dasharray: none; stroke-linecap: butt; stroke-dashoffset: 0; stroke-linejoin: miter; stroke-miterlimit: 4; fill: rgb(0,0,0); fill-rule: nonzero; opacity: 1;"
      vector-effect="non-scaling-stroke" x1="-75" y1="0" x2="75" y2="0"/>
</g>
    <g transform="matrix(0.1196 -0.1067 -0.0001 -0.0001 -250.3534 194.5164)">
<line style="stroke: rgb(0,0,0); stroke-width: 3; stroke-dasharray: none; stroke-linecap: butt; stroke-dashoffset: 0; stroke-linejoin: miter; stroke-miterlimit: 4; fill: rgb(0,0,0); fill-rule: nonzero; opacity: 1;"
      vector-effect="non-scaling-stroke" x1="-75" y1="0" x2="75" y2="0"/>
</g>
    <g transform="matrix(0.2077 0.1198 0.1198 -0.2077 -221.688 162.9839)">
<line style="stroke: rgb(0,0,0); stroke-width: 3; stroke-dasharray: none; stroke-linecap: butt; stroke-dashoffset: 0; stroke-linejoin: miter; stroke-miterlimit: 4; fill: rgb(0,0,0); fill-rule: nonzero; opacity: 1;"
      vector-effect="non-scaling-stroke" x1="-75" y1="0" x2="75" y2="0"/>
</g>
    <g transform="matrix(0.1196 -0.1067 -0.0001 -0.0001 -245.7895 160.91)">
<line style="stroke: rgb(0,0,0); stroke-width: 3; stroke-dasharray: none; stroke-linecap: butt; stroke-dashoffset: 0; stroke-linejoin: miter; stroke-miterlimit: 4; fill: rgb(0,0,0); fill-rule: nonzero; opacity: 1;"
      vector-effect="non-scaling-stroke" x1="-75" y1="0" x2="75" y2="0"/>
</g>
    <g transform="matrix(-0.2077 0.1198 0.1198 0.2077 -101.4402 162.5252)">
<line style="stroke: rgb(0,0,0); stroke-width: 3; stroke-dasharray: none; stroke-linecap: butt; stroke-dashoffset: 0; stroke-linejoin: miter; stroke-miterlimit: 4; fill: rgb(0,0,0); fill-rule: nonzero; opacity: 1;"
      vector-effect="non-scaling-stroke" x1="-75" y1="0" x2="75" y2="0"/>
</g>
    <g transform="matrix(0.1191 0.1072 0.0001 -0.0001 -78.3849 161.0935)">
<line style="stroke: rgb(0,0,0); stroke-width: 3; stroke-dasharray: none; stroke-linecap: butt; stroke-dashoffset: 0; stroke-linejoin: miter; stroke-miterlimit: 4; fill: rgb(0,0,0); fill-rule: nonzero; opacity: 1;"
      vector-effect="non-scaling-stroke" x1="-75" y1="0" x2="75" y2="0"/>
</g>
    <g transform="matrix(-0.2077 0.1198 0.1198 0.2077 -99.3657 174.557)">
<line style="stroke: rgb(0,0,0); stroke-width: 3; stroke-dasharray: none; stroke-linecap: butt; stroke-dashoffset: 0; stroke-linejoin: miter; stroke-miterlimit: 4; fill: rgb(0,0,0); fill-rule: nonzero; opacity: 1;"
      vector-effect="non-scaling-stroke" x1="-75" y1="0" x2="75" y2="0"/>
</g>
    <g transform="matrix(0.1191 0.1072 0.0001 -0.0001 -76.3104 173.1254)">
<line style="stroke: rgb(0,0,0); stroke-width: 3; stroke-dasharray: none; stroke-linecap: butt; stroke-dashoffset: 0; stroke-linejoin: miter; stroke-miterlimit: 4; fill: rgb(0,0,0); fill-rule: nonzero; opacity: 1;"
      vector-effect="non-scaling-stroke" x1="-75" y1="0" x2="75" y2="0"/>
</g>
    <g transform="matrix(-0.2077 0.1198 0.1198 0.2077 -94.8019 189.0784)">
<line style="stroke: rgb(0,0,0); stroke-width: 3; stroke-dasharray: none; stroke-linecap: butt; stroke-dashoffset: 0; stroke-linejoin: miter; stroke-miterlimit: 4; fill: rgb(0,0,0); fill-rule: nonzero; opacity: 1;"
      vector-effect="non-scaling-stroke" x1="-75" y1="0" x2="75" y2="0"/>
</g>
    <g transform="matrix(0.1191 0.1072 0.0001 -0.0001 -71.7465 187.6467)">
<line style="stroke: rgb(0,0,0); stroke-width: 3; stroke-dasharray: none; stroke-linecap: butt; stroke-dashoffset: 0; stroke-linejoin: miter; stroke-miterlimit: 4; fill: rgb(0,0,0); fill-rule: nonzero; opacity: 1;"
      vector-effect="non-scaling-stroke" x1="-75" y1="0" x2="75" y2="0"/>
</g>
    <g transform="matrix(0.4479 0 0 0.4479 -268.4182 -87.8515)">
<circle style="stroke: none; stroke-width: 0; stroke-dasharray: none; stroke-linecap: butt; stroke-dashoffset: 0; stroke-linejoin: miter; stroke-miterlimit: 4; fill: rgb(21,24,96); fill-rule: nonzero; opacity: 1;"
        vector-effect="non-scaling-stroke" cx="0" cy="0" r="75"/>
</g>
    <g transform="matrix(0.4479 0 0 0.4479 -217.7606 -98.8732)">
<circle style="stroke: none; stroke-width: 0; stroke-dasharray: none; stroke-linecap: butt; stroke-dashoffset: 0; stroke-linejoin: miter; stroke-miterlimit: 4; fill: rgb(21,24,96); fill-rule: nonzero; opacity: 1;"
        vector-effect="non-scaling-stroke" cx="0" cy="0" r="75"/>
</g>
    <g transform="matrix(0.4479 0 0 0.4479 -166.0432 -89.7591)">
<circle style="stroke: none; stroke-width: 0; stroke-dasharray: none; stroke-linecap: butt; stroke-dashoffset: 0; stroke-linejoin: miter; stroke-miterlimit: 4; fill: rgb(21,24,96); fill-rule: nonzero; opacity: 1;"
        vector-effect="non-scaling-stroke" cx="0" cy="0" r="75"/>
</g>
    <g transform="matrix(0.4479 0 0 0.4479 -309.3257 -49.9114)">
<circle style="stroke: none; stroke-width: 0; stroke-dasharray: none; stroke-linecap: butt; stroke-dashoffset: 0; stroke-linejoin: miter; stroke-miterlimit: 4; fill: rgb(21,24,96); fill-rule: nonzero; opacity: 1;"
        vector-effect="non-scaling-stroke" cx="0" cy="0" r="75"/>
</g>
    <g transform="matrix(0.4479 0 0 0.4479 -318.6518 -1.5853)">
<circle style="stroke: none; stroke-width: 0; stroke-dasharray: none; stroke-linecap: butt; stroke-dashoffset: 0; stroke-linejoin: miter; stroke-miterlimit: 4; fill: rgb(21,24,96); fill-rule: nonzero; opacity: 1;"
        vector-effect="non-scaling-stroke" cx="0" cy="0" r="75"/>
</g>
    <g transform="matrix(0.4479 0 0 0.4479 -307.6301 53.5234)">
<circle style="stroke: none; stroke-width: 0; stroke-dasharray: none; stroke-linecap: butt; stroke-dashoffset: 0; stroke-linejoin: miter; stroke-miterlimit: 4; fill: rgb(21,24,96); fill-rule: nonzero; opacity: 1;"
        vector-effect="non-scaling-stroke" cx="0" cy="0" r="75"/>
</g>
    <g transform="matrix(0.4479 0 0 0.4479 -284.7388 106.9364)">
<circle style="stroke: none; stroke-width: 0; stroke-dasharray: none; stroke-linecap: butt; stroke-dashoffset: 0; stroke-linejoin: miter; stroke-miterlimit: 4; fill: rgb(21,24,96); fill-rule: nonzero; opacity: 1;"
        vector-effect="non-scaling-stroke" cx="0" cy="0" r="75"/>
</g>
    <g transform="matrix(0.4479 0 0 0.4479 -246.5866 148.4799)">
<circle style="stroke: none; stroke-width: 0; stroke-dasharray: none; stroke-linecap: butt; stroke-dashoffset: 0; stroke-linejoin: miter; stroke-miterlimit: 4; fill: rgb(21,24,96); fill-rule: nonzero; opacity: 1;"
        vector-effect="non-scaling-stroke" cx="0" cy="0" r="75"/>
</g>
    <g transform="matrix(0.4479 0 0 0.4479 -196.5649 164.5885)">
<circle style="stroke: none; stroke-width: 0; stroke-dasharray: none; stroke-linecap: butt; stroke-dashoffset: 0; stroke-linejoin: miter; stroke-miterlimit: 4; fill: rgb(21,24,96); fill-rule: nonzero; opacity: 1;"
        vector-effect="non-scaling-stroke" cx="0" cy="0" r="75"/>
</g>
    <g transform="matrix(0.4479 0 0 0.4479 -155.0215 140.0016)">
<circle style="stroke: none; stroke-width: 0; stroke-dasharray: none; stroke-linecap: butt; stroke-dashoffset: 0; stroke-linejoin: miter; stroke-miterlimit: 4; fill: rgb(21,24,96); fill-rule: nonzero; opacity: 1;"
        vector-effect="non-scaling-stroke" cx="0" cy="0" r="75"/>
</g>
    <g transform="matrix(0.4479 0 0 0.4479 -120.2605 -57.5419)">
<circle style="stroke: none; stroke-width: 0; stroke-dasharray: none; stroke-linecap: butt; stroke-dashoffset: 0; stroke-linejoin: miter; stroke-miterlimit: 4; fill: rgb(21,24,96); fill-rule: nonzero; opacity: 1;"
        vector-effect="non-scaling-stroke" cx="0" cy="0" r="75"/>
</g>
    <g transform="matrix(0.4479 0 0 0.4479 -104.1519 -4.1289)">
<circle style="stroke: none; stroke-width: 0; stroke-dasharray: none; stroke-linecap: butt; stroke-dashoffset: 0; stroke-linejoin: miter; stroke-miterlimit: 4; fill: rgb(21,24,96); fill-rule: nonzero; opacity: 1;"
        vector-effect="non-scaling-stroke" cx="0" cy="0" r="75"/>
</g>
    <g transform="matrix(0.4479 0 0 0.4479 -110.0867 50.9798)">
<circle style="stroke: none; stroke-width: 0; stroke-dasharray: none; stroke-linecap: butt; stroke-dashoffset: 0; stroke-linejoin: miter; stroke-miterlimit: 4; fill: rgb(21,24,96); fill-rule: nonzero; opacity: 1;"
        vector-effect="non-scaling-stroke" cx="0" cy="0" r="75"/>
</g>
    <g transform="matrix(0.4479 0 0 0.4479 -124.4997 97.6102)">
<circle style="stroke: none; stroke-width: 0; stroke-dasharray: none; stroke-linecap: butt; stroke-dashoffset: 0; stroke-linejoin: miter; stroke-miterlimit: 4; fill: rgb(21,24,96); fill-rule: nonzero; opacity: 1;"
        vector-effect="non-scaling-stroke" cx="0" cy="0" r="75"/>
</g>
    <g transform="matrix(0.4479 0 0 0.4479 -242.3476 -49.0637)">
<circle style="stroke: none; stroke-width: 0; stroke-dasharray: none; stroke-linecap: butt; stroke-dashoffset: 0; stroke-linejoin: miter; stroke-miterlimit: 4; fill: rgb(34,21,96); fill-rule: nonzero; opacity: 1;"
        vector-effect="non-scaling-stroke" cx="0" cy="0" r="75"/>
</g>
    <g transform="matrix(0.4479 0 0 0.4479 -192.3259 -51.6072)">
<circle style="stroke: none; stroke-width: 0; stroke-dasharray: none; stroke-linecap: butt; stroke-dashoffset: 0; stroke-linejoin: miter; stroke-miterlimit: 4; fill: rgb(34,21,96); fill-rule: nonzero; opacity: 1;"
        vector-effect="non-scaling-stroke" cx="0" cy="0" r="75"/>
</g>
    <g transform="matrix(0.4479 0 0 0.4479 -152.4781 -32.1072)">
<circle style="stroke: none; stroke-width: 0; stroke-dasharray: none; stroke-linecap: butt; stroke-dashoffset: 0; stroke-linejoin: miter; stroke-miterlimit: 4; fill: rgb(34,21,96); fill-rule: nonzero; opacity: 1;"
        vector-effect="non-scaling-stroke" cx="0" cy="0" r="75"/>
</g>
    <g transform="matrix(0.4479 0 0 0.4479 -278.8041 -32.955)">
<circle style="stroke: none; stroke-width: 0; stroke-dasharray: none; stroke-linecap: butt; stroke-dashoffset: 0; stroke-linejoin: miter; stroke-miterlimit: 4; fill: rgb(34,21,96); fill-rule: nonzero; opacity: 1;"
        vector-effect="non-scaling-stroke" cx="0" cy="0" r="75"/>
</g>
    <g transform="matrix(0.4479 0 0 0.4479 -269.4781 22.1537)">
<circle style="stroke: none; stroke-width: 0; stroke-dasharray: none; stroke-linecap: butt; stroke-dashoffset: 0; stroke-linejoin: miter; stroke-miterlimit: 4; fill: rgb(34,21,96); fill-rule: nonzero; opacity: 1;"
        vector-effect="non-scaling-stroke" cx="0" cy="0" r="75"/>
</g>
    <g transform="matrix(0.4479 0 0 0.4479 -253.3694 73.8711)">
<circle style="stroke: none; stroke-width: 0; stroke-dasharray: none; stroke-linecap: butt; stroke-dashoffset: 0; stroke-linejoin: miter; stroke-miterlimit: 4; fill: rgb(34,21,96); fill-rule: nonzero; opacity: 1;"
        vector-effect="non-scaling-stroke" cx="0" cy="0" r="75"/>
</g>
    <g transform="matrix(0.4479 0 0 0.4479 -230.4781 110.3276)">
<circle style="stroke: none; stroke-width: 0; stroke-dasharray: none; stroke-linecap: butt; stroke-dashoffset: 0; stroke-linejoin: miter; stroke-miterlimit: 4; fill: rgb(34,21,96); fill-rule: nonzero; opacity: 1;"
        vector-effect="non-scaling-stroke" cx="0" cy="0" r="75"/>
</g>
    <g transform="matrix(0.4479 0 0 0.4479 -180.4564 114.5667)">
<circle style="stroke: none; stroke-width: 0; stroke-dasharray: none; stroke-linecap: butt; stroke-dashoffset: 0; stroke-linejoin: miter; stroke-miterlimit: 4; fill: rgb(34,21,96); fill-rule: nonzero; opacity: 1;"
        vector-effect="non-scaling-stroke" cx="0" cy="0" r="75"/>
</g>
    <g transform="matrix(0.4479 0 0 0.4479 -150.7825 64.545)">
<circle style="stroke: none; stroke-width: 0; stroke-dasharray: none; stroke-linecap: butt; stroke-dashoffset: 0; stroke-linejoin: miter; stroke-miterlimit: 4; fill: rgb(34,21,96); fill-rule: nonzero; opacity: 1;"
        vector-effect="non-scaling-stroke" cx="0" cy="0" r="75"/>
</g>
    <g transform="matrix(0.4479 0 0 0.4479 -138.065 7.7406)">
<circle style="stroke: none; stroke-width: 0; stroke-dasharray: none; stroke-linecap: butt; stroke-dashoffset: 0; stroke-linejoin: miter; stroke-miterlimit: 4; fill: rgb(34,21,96); fill-rule: nonzero; opacity: 1;"
        vector-effect="non-scaling-stroke" cx="0" cy="0" r="75"/>
</g>
    <g transform="matrix(0.4479 0 0 0.4479 -225.3911 -1.5855)">
<circle style="stroke: none; stroke-width: 0; stroke-dasharray: none; stroke-linecap: butt; stroke-dashoffset: 0; stroke-linejoin: miter; stroke-miterlimit: 4; fill: rgb(36,24,99); fill-rule: nonzero; opacity: 1;"
        vector-effect="non-scaling-stroke" cx="0" cy="0" r="75"/>
</g>
    <g transform="matrix(0.4479 0 0 0.4479 -222.8476 43.3493)">
<circle style="stroke: none; stroke-width: 0; stroke-dasharray: none; stroke-linecap: butt; stroke-dashoffset: 0; stroke-linejoin: miter; stroke-miterlimit: 4; fill: rgb(36,24,99); fill-rule: nonzero; opacity: 1;"
        vector-effect="non-scaling-stroke" cx="0" cy="0" r="75"/>
</g>
    <g transform="matrix(0.4479 0 0 0.4479 -196.565 74.7189)">
<circle style="stroke: none; stroke-width: 0; stroke-dasharray: none; stroke-linecap: butt; stroke-dashoffset: 0; stroke-linejoin: miter; stroke-miterlimit: 4; fill: rgb(36,24,99); fill-rule: nonzero; opacity: 1;"
        vector-effect="non-scaling-stroke" cx="0" cy="0" r="75"/>
</g>
    <g transform="matrix(0.4479 0 0 0.4479 -180.4564 38.2624)">
<circle style="stroke: none; stroke-width: 0; stroke-dasharray: none; stroke-linecap: butt; stroke-dashoffset: 0; stroke-linejoin: miter; stroke-miterlimit: 4; fill: rgb(36,24,99); fill-rule: nonzero; opacity: 1;"
        vector-effect="non-scaling-stroke" cx="0" cy="0" r="75"/>
</g>
    <g transform="matrix(0.4479 0 0 0.4479 -179.6085 -1.5855)">
<circle style="stroke: none; stroke-width: 0; stroke-dasharray: none; stroke-linecap: butt; stroke-dashoffset: 0; stroke-linejoin: miter; stroke-miterlimit: 4; fill: rgb(36,24,99); fill-rule: nonzero; opacity: 1;"
        vector-effect="non-scaling-stroke" cx="0" cy="0" r="75"/>
</g>
    <g transform="matrix(0.3716 0.3716 -0.2931 0.2931 -247.1855 -145.5278)">
<ellipse
        style="stroke: none; stroke-width: 1; stroke-dasharray: none; stroke-linecap: butt; stroke-dashoffset: 0; stroke-linejoin: miter; stroke-miterlimit: 4; fill: rgb(55,169,68); fill-rule: nonzero; opacity: 1;"
        cx="0" cy="0" rx="100" ry="60"/>
</g>
    <g transform="matrix(-0.566 0.566 -0.2931 -0.2931 -162.2476 -168.6908)">
<ellipse
        style="stroke: none; stroke-width: 1; stroke-dasharray: none; stroke-linecap: butt; stroke-dashoffset: 0; stroke-linejoin: miter; stroke-miterlimit: 4; fill: rgb(55,169,68); fill-rule: nonzero; opacity: 1;"
        cx="0" cy="0" rx="100" ry="60"/>
</g>
    <g transform="matrix(0.3408 0.3408 0.3408 -0.3408 -239.6077 -142.9247)">
<line style="stroke: rgb(164,244,170); stroke-width: 3; stroke-dasharray: none; stroke-linecap: butt; stroke-dashoffset: 0; stroke-linejoin: miter; stroke-miterlimit: 4; fill: rgb(0,0,0); fill-rule: nonzero; opacity: 1;"
      vector-effect="non-scaling-stroke" x1="-75" y1="0" x2="75" y2="0"/>
</g>
    <g transform="matrix(-0.5885 0.5885 0.5885 0.5885 -170.8697 -161.9811)">
<line style="stroke: rgb(164,244,170); stroke-width: 3; stroke-dasharray: none; stroke-linecap: butt; stroke-dashoffset: 0; stroke-linejoin: miter; stroke-miterlimit: 4; fill: rgb(0,0,0); fill-rule: nonzero; opacity: 1;"
      vector-effect="non-scaling-stroke" x1="-75" y1="0" x2="75" y2="0"/>
</g>
    <g transform="matrix(1.3907 0 0 1.3907 -200.7874 28.3273)">
<path style="stroke: rgb(47,158,68); stroke-width: 12; stroke-dasharray: none; stroke-linecap: round; stroke-dashoffset: 0; stroke-linejoin: round; stroke-miterlimit: 4; fill: none; fill-rule: nonzero; opacity: 1;"
      transform=" translate(-64, -61)" d="M 18 70 C 26 78 34 86 44 96 C 60 76 80 54 110 26" stroke-linecap="round"/>
</g>
    <g transform="matrix(2.3205 0 0 2.3205 80.8882 -40.7107)" style="">
		<text xml:space="preserve" font-family="sans-serif" font-size="48" font-style="normal" font-weight="bold"
              style="stroke: none; stroke-width: 1; stroke-dasharray: none; stroke-linecap: butt; stroke-dashoffset: 0; stroke-linejoin: miter; stroke-miterlimit: 4; fill: rgb(37,12,75); fill-rule: nonzero; opacity: 1; white-space: pre;"><tspan x="-62.707" y="15.0787" >Berry</tspan></text>
</g>
    <g transform="matrix(2.3205 0 0 2.3205 190.184 63.8761)" style="">
		<text xml:space="preserve" font-family="sans-serif" font-size="48" font-style="normal" font-weight="bold"
              style="stroke: none; stroke-width: 1; stroke-dasharray: none; stroke-linecap: butt; stroke-dashoffset: 0; stroke-linejoin: miter; stroke-miterlimit: 4; fill: rgb(26,127,51); fill-rule: nonzero; opacity: 1; white-space: pre;"><tspan x="-69.3398" y="15.0787" >Crush</tspan></text>
</g>
</g>
</g>
</svg>